<svg width="14" height="14" viewBox="0 0 14 14" fill="none" xmlns="http://www.w3.org/2000/svg">
<g id="wrapper" clip-path="url(#clip0_503_20231)">
<path id="Union" d="M12 0H2C1.72344 0 1.5 0.223437 1.5 0.5V13.5C1.5 13.7766 1.72344 14 2 14H12C12.2766 14 12.5 13.7766 12.5 13.5V0.5C12.5 0.223437 12.2766 0 12 0ZM11.375 12.875H2.625V9.73438H4.15469C4.33594 10.2469 4.65469 10.7078 5.07813 11.0578C5.61719 11.5031 6.3 11.75 7 11.75C7.7 11.75 8.38281 11.5047 8.92188 11.0578C9.34531 10.7078 9.66406 10.2469 9.84531 9.73438H11.375V8.75H9.05625L8.975 9.13594C8.7875 10.0703 7.95625 10.75 7 10.75C6.04375 10.75 5.2125 10.0703 5.02344 9.13594L4.94219 8.75H2.625V1.125H11.375V12.875ZM4 4.32812H10C10.0688 4.32812 10.125 4.27187 10.125 4.20312V3.45312C10.125 3.38438 10.0688 3.32812 10 3.32812H4C3.93125 3.32812 3.875 3.38438 3.875 3.45312V4.20312C3.875 4.27187 3.93125 4.32812 4 4.32812ZM4 6.82812H10C10.0688 6.82812 10.125 6.77187 10.125 6.70312V5.95312C10.125 5.88438 10.0688 5.82812 10 5.82812H4C3.93125 5.82812 3.875 5.88438 3.875 5.95312V6.70312C3.875 6.77187 3.93125 6.82812 4 6.82812Z" fill="#C9D0D8"/>
</g>
<defs>
<clipPath id="clip0_503_20231">
<rect width="14" height="14" fill="white"/>
</clipPath>
</defs>
</svg>
