<svg width="14" height="14" viewBox="0 0 14 14" fill="none" xmlns="http://www.w3.org/2000/svg">
<g id="wrapper">
<path id="Union" d="M9.75 3.87207V3.12207C9.75 3.05332 9.69375 2.99707 9.625 2.99707H3.625C3.55625 2.99707 3.5 3.05332 3.5 3.12207V3.87207C3.5 3.94082 3.55625 3.99707 3.625 3.99707H9.625C9.69375 3.99707 9.75 3.94082 9.75 3.87207ZM3.625 5.24707C3.55625 5.24707 3.5 5.30332 3.5 5.37207V6.12207C3.5 6.19082 3.55625 6.24707 3.625 6.24707H6.5C6.56875 6.24707 6.625 6.19082 6.625 6.12207V5.37207C6.625 5.30332 6.56875 5.24707 6.5 5.24707H3.625ZM5.875 12.3096H2.25V1.30957H11V6.68457C11 6.75332 11.0562 6.80957 11.125 6.80957H12C12.0687 6.80957 12.125 6.75332 12.125 6.68457V0.68457C12.125 0.408008 11.9016 0.18457 11.625 0.18457H1.625C1.34844 0.18457 1.125 0.408008 1.125 0.68457V12.9346C1.125 13.2111 1.34844 13.4346 1.625 13.4346H5.875C5.94375 13.4346 6 13.3783 6 13.3096V12.4346C6 12.3658 5.94375 12.3096 5.875 12.3096ZM12.8391 13.1143L11.3812 11.6564C11.7297 11.1955 11.9375 10.6205 11.9375 9.99707C11.9375 8.47832 10.7062 7.24707 9.1875 7.24707C7.66875 7.24707 6.4375 8.47832 6.4375 9.99707C6.4375 11.5158 7.66875 12.7471 9.1875 12.7471C9.74687 12.7471 10.2656 12.5799 10.7 12.2939L12.1797 13.7736C12.2047 13.7986 12.2359 13.8096 12.2672 13.8096C12.2984 13.8096 12.3312 13.7971 12.3547 13.7736L12.8391 13.2893C12.8506 13.2778 12.8597 13.2642 12.866 13.2491C12.8722 13.2341 12.8754 13.218 12.8754 13.2018C12.8754 13.1855 12.8722 13.1694 12.866 13.1544C12.8597 13.1394 12.8506 13.1257 12.8391 13.1143ZM9.1875 11.7471C8.22031 11.7471 7.4375 10.9643 7.4375 9.99707C7.4375 9.02988 8.22031 8.24707 9.1875 8.24707C10.1547 8.24707 10.9375 9.02988 10.9375 9.99707C10.9375 10.9643 10.1547 11.7471 9.1875 11.7471Z" fill="#C9D0D8"/>
</g>
</svg>
