<svg width="14" height="14" viewBox="0 0 14 14" fill="none" xmlns="http://www.w3.org/2000/svg">
<g id="wrapper">
<path id="Union" d="M6.99453 1.04297C3.61348 1.0416 0.875 3.77871 0.875 7.15703C0.875 9.82852 2.58809 12.0994 4.97383 12.9334C5.29512 13.0141 5.2459 12.7857 5.2459 12.6299V11.5703C3.39063 11.7877 3.31543 10.56 3.19102 10.3549C2.93945 9.92559 2.34473 9.81621 2.52246 9.61113C2.94492 9.39375 3.37559 9.66582 3.87461 10.4027C4.23555 10.9373 4.93965 10.8471 5.29648 10.7582C5.37441 10.4369 5.54121 10.1498 5.7709 9.92695C3.84863 9.58242 3.04746 8.40938 3.04746 7.01484C3.04746 6.33809 3.27031 5.71602 3.70781 5.21426C3.42891 4.38711 3.73379 3.67891 3.7748 3.57363C4.56914 3.50254 5.39492 4.14238 5.45918 4.19297C5.91035 4.07129 6.42578 4.00703 7.00273 4.00703C7.58242 4.00703 8.09922 4.07402 8.55449 4.19707C8.70898 4.07949 9.47461 3.52988 10.2129 3.59688C10.2525 3.70215 10.5506 4.39395 10.2881 5.21016C10.7311 5.71328 10.9566 6.34082 10.9566 7.01895C10.9566 8.41621 10.15 9.59062 8.22227 9.92969C8.38738 10.0921 8.51849 10.2857 8.60792 10.4993C8.69736 10.713 8.74333 10.9422 8.74316 11.1738V12.7119C8.7541 12.835 8.74316 12.9566 8.94824 12.9566C11.3695 12.1404 13.1127 9.85313 13.1127 7.1584C13.1127 3.77871 10.3729 1.04297 6.99453 1.04297Z" fill="#C9D0D8"/>
</g>
</svg>
