<svg width="20" height="20" viewBox="0 0 20 20" fill="none" xmlns="http://www.w3.org/2000/svg">
<path d="M19.3227 18.0308L13.2359 11.944C14.1805 10.7229 14.6914 9.22998 14.6914 7.65967C14.6914 5.77998 13.9578 4.01748 12.6312 2.68857C11.3047 1.35967 9.5375 0.628418 7.66016 0.628418C5.78281 0.628418 4.01562 1.36201 2.68906 2.68857C1.36016 4.01514 0.628906 5.77998 0.628906 7.65967C0.628906 9.53701 1.3625 11.3042 2.68906 12.6308C4.01562 13.9597 5.78047 14.6909 7.66016 14.6909C9.23047 14.6909 10.7211 14.18 11.9422 13.2378L18.0289 19.3222C18.0468 19.34 18.0679 19.3542 18.0913 19.3639C18.1146 19.3735 18.1396 19.3785 18.1648 19.3785C18.1901 19.3785 18.2151 19.3735 18.2384 19.3639C18.2617 19.3542 18.2829 19.34 18.3008 19.3222L19.3227 18.3026C19.3405 18.2848 19.3547 18.2636 19.3643 18.2403C19.374 18.2169 19.379 18.1919 19.379 18.1667C19.379 18.1415 19.374 18.1165 19.3643 18.0931C19.3547 18.0698 19.3405 18.0486 19.3227 18.0308ZM11.3727 11.3722C10.3789 12.3636 9.06172 12.9097 7.66016 12.9097C6.25859 12.9097 4.94141 12.3636 3.94766 11.3722C2.95625 10.3784 2.41016 9.06123 2.41016 7.65967C2.41016 6.25811 2.95625 4.93857 3.94766 3.94717C4.94141 2.95576 6.25859 2.40967 7.66016 2.40967C9.06172 2.40967 10.3813 2.95342 11.3727 3.94717C12.3641 4.94092 12.9102 6.25811 12.9102 7.65967C12.9102 9.06123 12.3641 10.3808 11.3727 11.3722Z" fill="#D3DDE8"/>
</svg>
