<svg width="20" height="20" viewBox="0 0 22 22" fill="none" xmlns="http://www.w3.org/2000/svg">
<path d="M20.3227 19.031L14.2359 12.9443C15.1805 11.7232 15.6914 10.2302 15.6914 8.65991C15.6914 6.78022 14.9578 5.01772 13.6312 3.68882C12.3047 2.35991 10.5375 1.62866 8.66016 1.62866C6.78281 1.62866 5.01562 2.36226 3.68906 3.68882C2.36016 5.01538 1.62891 6.78022 1.62891 8.65991C1.62891 10.5373 2.3625 12.3044 3.68906 13.631C5.01562 14.9599 6.78047 15.6912 8.66016 15.6912C10.2305 15.6912 11.7211 15.1802 12.9422 14.238L19.0289 20.3224C19.0468 20.3403 19.0679 20.3544 19.0913 20.3641C19.1146 20.3738 19.1396 20.3787 19.1648 20.3787C19.1901 20.3787 19.2151 20.3738 19.2384 20.3641C19.2617 20.3544 19.2829 20.3403 19.3008 20.3224L20.3227 19.3029C20.3405 19.285 20.3547 19.2638 20.3643 19.2405C20.374 19.2172 20.379 19.1922 20.379 19.1669C20.379 19.1417 20.374 19.1167 20.3643 19.0934C20.3547 19.07 20.3405 19.0489 20.3227 19.031ZM12.3727 12.3724C11.3789 13.3638 10.0617 13.9099 8.66016 13.9099C7.25859 13.9099 5.94141 13.3638 4.94766 12.3724C3.95625 11.3787 3.41016 10.0615 3.41016 8.65991C3.41016 7.25835 3.95625 5.93882 4.94766 4.94741C5.94141 3.95601 7.25859 3.40991 8.66016 3.40991C10.0617 3.40991 11.3813 3.95366 12.3727 4.94741C13.3641 5.94116 13.9102 7.25835 13.9102 8.65991C13.9102 10.0615 13.3641 11.381 12.3727 12.3724Z" fill="#FE4F18"/>
</svg>
