<svg width="8" height="6" viewBox="0 0 8 6" fill="none" xmlns="http://www.w3.org/2000/svg">
<path d="M7.37803 5.17239L4.22981 0.832213C4.11553 0.67507 3.8816 0.67507 3.7682 0.832213L0.619096 5.17239C0.611346 5.18307 0.606704 5.19568 0.605683 5.20883C0.604662 5.22198 0.607303 5.23516 0.613313 5.2469C0.619323 5.25864 0.628467 5.26849 0.639731 5.27535C0.650996 5.28222 0.663941 5.28583 0.677132 5.28578H1.34677C1.39231 5.28578 1.43517 5.26346 1.46195 5.22686L3.99856 1.73043L6.53517 5.22686C6.56195 5.26346 6.60481 5.28578 6.65035 5.28578H7.31999C7.37803 5.28578 7.41195 5.21971 7.37803 5.17239Z" fill="#C9D0D8"/>
</svg>
