<svg width="64" height="64" viewBox="0 0 64 64" fill="none" xmlns="http://www.w3.org/2000/svg">
<path d="M4.67868 64H13.923C15.8967 63.8723 17.435 63.6167 18.538 63.2335C19.6409 62.8502 20.5117 62.0838 21.1502 60.934C21.7888 59.7844 22.3693 58.0598 22.8917 55.7604L34.3856 8.23941C34.9661 5.87614 35.1983 4.15159 35.0822 3.06576C34.9661 1.91606 34.4436 1.14959 33.5148 0.766357C32.6446 0.31951 31.2235 0.0640575 29.2516 0H4.67861C12.5095 1.81723 18.2911 8.17513 18.2911 15.7394C18.2911 24.7077 10.1638 31.9803 0.129925 32C10.1638 32.0197 18.2911 39.2923 18.2911 48.2607C18.2911 55.8249 12.5095 62.1828 4.67868 64Z" fill="#FE4F18"/>
<path d="M64 0H60.9399C58.9679 0.0640575 57.4307 0.31951 56.3284 0.766357C55.2254 1.14959 54.3547 1.91606 53.7161 3.06576C53.1356 4.15159 52.5551 5.87614 51.9746 8.23941L40.4808 55.7604C39.9584 58.0598 39.7261 59.7844 39.7842 60.934C39.8422 62.0838 40.3066 62.8502 41.1774 63.2335C42.1062 63.5528 43.5284 63.7125 45.4441 63.7125H47.0114C48.9851 63.7125 51.1329 63.1376 53.4549 61.9879C55.835 60.8382 58.1569 58.954 60.4209 56.3352C61.7235 54.8661 64 51.0835 64 51.0835L64 0Z" fill="#FE4F18"/>
</svg>
