<svg width="1504" height="375" viewBox="0 0 1504 375" fill="none" xmlns="http://www.w3.org/2000/svg">
<g opacity="0.15">
<path d="M0 27.439C6.7233 27.76 15.5276 28.0809 26.413 28.4018C37.2983 28.7227 48.0236 28.8832 58.5887 28.8832C73.6361 28.8832 88.0432 28.7227 101.81 28.4018C115.577 28.0809 125.341 27.9204 131.104 27.9204C164.721 27.9204 190.013 34.9808 206.982 49.1014C223.95 63.2221 232.434 81.3543 232.434 103.498C232.434 114.73 230.033 125.802 225.23 136.714C220.748 147.304 213.064 157.092 202.179 166.078C191.614 174.743 177.367 181.804 159.438 187.259V188.222C184.731 191.431 204.42 197.529 218.507 206.515C232.914 215.18 242.999 225.449 248.762 237.323C254.525 249.198 257.406 261.714 257.406 274.872C257.406 293.164 252.764 309.371 243.479 323.492C234.515 337.291 221.389 348.203 204.1 356.226C186.812 364.249 166.161 368.261 142.15 368.261C135.106 368.261 124.541 368.1 110.454 367.779C96.3673 367.137 79.3989 366.816 59.5492 366.816C48.3437 366.816 37.2983 366.977 26.413 367.298C15.5276 367.298 6.7233 367.619 0 368.261V358.633C10.8853 357.991 19.0493 356.707 24.492 354.782C30.2548 352.856 34.0967 349.005 36.0177 343.229C37.9386 337.452 38.8991 328.787 38.8991 317.234V78.466C38.8991 66.5918 37.9386 57.9268 36.0177 52.4711C34.0967 46.6945 30.2548 42.8434 24.492 40.9179C19.0493 38.6714 10.8853 37.3877 0 37.0668V27.439ZM119.098 37.0668C104.371 37.0668 94.7665 39.7946 90.2843 45.2503C85.8021 50.706 83.561 61.7779 83.561 78.466V317.234C83.561 328.466 84.5215 336.97 86.4424 342.747C88.3633 348.524 91.8851 352.375 97.0076 354.3C102.13 356.226 109.654 357.189 119.579 357.189C150.954 357.189 173.685 349.968 187.772 335.526C202.179 320.764 209.383 299.904 209.383 272.946C209.383 248.235 202.659 229.14 189.213 215.661C176.086 202.182 154.316 195.443 123.901 195.443H74.4365C74.4365 195.443 74.4365 194.159 74.4365 191.592C74.4365 188.703 74.4365 187.259 74.4365 187.259H115.737C134.626 187.259 149.193 183.729 159.438 176.669C169.683 169.288 176.727 159.66 180.569 147.786C184.41 135.59 186.331 122.593 186.331 108.793C186.331 85.0449 181.049 67.2336 170.484 55.3594C160.239 43.1643 143.11 37.0668 119.098 37.0668Z" fill="#D3DDE8"/>
<path d="M345.368 0C353.692 0 360.896 3.04878 366.979 9.14634C373.062 15.2439 376.103 22.4647 376.103 30.8087C376.103 39.1528 373.062 46.3736 366.979 52.4711C360.896 58.5687 353.692 61.6175 345.368 61.6175C337.044 61.6175 329.841 58.5687 323.758 52.4711C317.675 46.3736 314.633 39.1528 314.633 30.8087C314.633 22.4647 317.675 15.2439 323.758 9.14634C329.841 3.04878 337.044 0 345.368 0ZM370.34 115.051V323.492C370.34 336.97 373.062 346.117 378.504 350.931C384.267 355.745 393.712 358.151 406.838 358.151V368.261C401.396 367.94 393.072 367.619 381.866 367.298C370.981 366.656 359.935 366.335 348.73 366.335C337.844 366.335 326.799 366.656 315.594 367.298C304.388 367.619 296.064 367.94 290.621 368.261V358.151C303.748 358.151 313.032 355.745 318.475 350.931C324.238 346.117 327.119 336.97 327.119 323.492V172.818C327.119 158.376 324.558 147.786 319.435 141.046C314.313 133.986 304.708 130.456 290.621 130.456V120.347C300.866 121.309 310.791 121.791 320.396 121.791C329.68 121.791 338.485 121.309 346.809 120.347C355.453 119.063 363.297 117.298 370.34 115.051Z" fill="#D3DDE8"/>
<path d="M508.633 40.4364V120.828H579.708V130.456H508.633V316.752C508.633 331.836 511.355 342.426 516.797 348.524C522.24 354.621 529.764 357.67 539.368 357.67C548.973 357.67 557.297 353.819 564.341 346.117C571.384 338.094 577.467 324.775 582.589 306.162L592.194 308.569C588.993 327.182 582.589 342.908 572.985 355.745C563.7 368.582 549.293 375 529.763 375C518.878 375 509.914 373.556 502.87 370.668C495.827 368.1 489.584 364.249 484.141 359.114C477.098 351.733 472.135 342.908 469.254 332.638C466.693 322.368 465.412 308.729 465.412 291.72V130.456H419.309V120.828H465.412V47.1759C473.416 46.8549 481.1 46.2131 488.463 45.2503C495.827 44.2876 502.55 42.6829 508.633 40.4364Z" fill="#D3DDE8"/>
<path d="M721.145 113.607C731.39 113.607 741.315 114.891 750.919 117.458C760.524 120.026 769.168 123.877 776.852 129.012C784.216 133.825 789.819 139.442 793.66 145.86C797.502 151.958 799.423 158.697 799.423 166.078C799.423 174.743 797.022 181.483 792.22 186.297C787.417 190.789 781.334 193.036 773.971 193.036C766.927 193.036 760.684 190.95 755.242 186.778C750.119 182.606 747.558 176.669 747.558 168.967C747.558 161.585 749.479 155.648 753.321 151.155C757.483 146.662 762.285 143.774 767.728 142.49C764.526 136.714 758.763 131.9 750.439 128.049C742.435 124.198 733.791 122.272 724.507 122.272C716.503 122.272 708.499 124.198 700.495 128.049C692.491 131.9 685.127 138.318 678.404 147.304C671.681 155.969 666.238 168.004 662.076 183.408C657.914 198.492 655.833 217.426 655.833 240.212C655.833 268.453 659.034 290.918 665.438 307.606C671.841 324.294 680.165 336.329 690.41 343.71C700.975 350.77 712.501 354.3 724.987 354.3C733.311 354.3 741.795 352.696 750.439 349.487C759.083 346.277 767.247 341.142 774.931 334.082C782.615 326.701 789.178 316.913 794.621 304.718L803.745 308.087C800.544 318.357 795.261 328.787 787.898 339.377C780.534 349.647 770.929 358.151 759.083 364.891C747.238 371.63 732.671 375 715.382 375C695.532 375 677.604 369.865 661.596 359.596C645.588 349.326 632.781 334.724 623.177 315.789C613.892 296.534 609.25 273.748 609.25 247.433C609.25 221.117 613.892 198.01 623.177 178.113C632.781 157.895 646.068 142.169 663.036 130.937C680.005 119.384 699.374 113.607 721.145 113.607Z" fill="#D3DDE8"/>
<path d="M952.296 113.607C972.786 113.607 991.195 118.1 1007.52 127.086C1023.85 136.072 1036.82 150.193 1046.42 169.448C1056.35 188.703 1061.31 213.736 1061.31 244.544C1061.31 275.353 1056.35 300.385 1046.42 319.641C1036.82 338.575 1023.85 352.535 1007.52 361.521C991.195 370.507 972.786 375 952.296 375C932.126 375 913.717 370.507 897.069 361.521C880.741 352.535 867.614 338.575 857.689 319.641C848.085 300.385 843.282 275.353 843.282 244.544C843.282 213.736 848.085 188.703 857.689 169.448C867.614 150.193 880.741 136.072 897.069 127.086C913.717 118.1 932.126 113.607 952.296 113.607ZM952.296 123.235C934.047 123.235 918.999 132.702 907.154 151.637C895.628 170.571 889.865 201.54 889.865 244.544C889.865 287.548 895.628 318.517 907.154 337.452C918.999 356.065 934.047 365.372 952.296 365.372C970.545 365.372 985.432 356.065 996.958 337.452C1008.8 318.517 1014.73 287.548 1014.73 244.544C1014.73 201.54 1008.8 170.571 996.958 151.637C985.432 132.702 970.545 123.235 952.296 123.235Z" fill="#D3DDE8"/>
<path d="M1152.48 0C1160.81 0 1168.01 3.04878 1174.09 9.14634C1180.18 15.2439 1183.22 22.4647 1183.22 30.8087C1183.22 39.1528 1180.18 46.3736 1174.09 52.4711C1168.01 58.5687 1160.81 61.6175 1152.48 61.6175C1144.16 61.6175 1136.96 58.5687 1130.87 52.4711C1124.79 46.3736 1121.75 39.1528 1121.75 30.8087C1121.75 22.4647 1124.79 15.2439 1130.87 9.14634C1136.96 3.04878 1144.16 0 1152.48 0ZM1177.45 115.051V323.492C1177.45 336.97 1180.18 346.117 1185.62 350.931C1191.38 355.745 1200.83 358.151 1213.95 358.151V368.261C1208.51 367.94 1200.19 367.619 1188.98 367.298C1178.1 366.656 1167.05 366.335 1155.84 366.335C1144.96 366.335 1133.91 366.656 1122.71 367.298C1111.5 367.619 1103.18 367.94 1097.74 368.261V358.151C1110.86 358.151 1120.15 355.745 1125.59 350.931C1131.35 346.117 1134.23 336.97 1134.23 323.492V172.818C1134.23 158.376 1131.67 147.786 1126.55 141.046C1121.43 133.986 1111.82 130.456 1097.74 130.456V120.347C1107.98 121.309 1117.91 121.791 1127.51 121.791C1136.79 121.791 1145.6 121.309 1153.92 120.347C1162.57 119.063 1170.41 117.298 1177.45 115.051Z" fill="#D3DDE8"/>
<path d="M1399.79 113.607C1411.95 113.607 1422.04 115.212 1430.04 118.421C1438.37 121.63 1445.25 126.123 1450.69 131.9C1456.78 138.318 1461.1 146.341 1463.66 155.969C1466.22 165.597 1467.5 178.594 1467.5 194.961V323.492C1467.5 336.97 1470.22 346.117 1475.67 350.931C1481.43 355.745 1490.87 358.151 1504 358.151V368.261C1498.56 367.94 1490.23 367.619 1479.03 367.298C1467.82 366.656 1456.94 366.335 1446.37 366.335C1435.81 366.335 1425.4 366.656 1415.16 367.298C1405.23 367.619 1397.71 367.94 1392.59 368.261V358.151C1404.11 358.151 1412.28 355.745 1417.08 350.931C1421.88 346.117 1424.28 336.97 1424.28 323.492V184.371C1424.28 174.422 1423.48 165.276 1421.88 156.932C1420.28 148.588 1416.6 141.849 1410.83 136.714C1405.39 131.579 1396.91 129.012 1385.38 129.012C1371.94 129.012 1360.09 132.863 1349.84 140.565C1339.92 148.267 1332.08 158.858 1326.31 172.336C1320.87 185.494 1318.15 200.257 1318.15 216.624V323.492C1318.15 336.97 1320.55 346.117 1325.35 350.931C1330.15 355.745 1338.32 358.151 1349.84 358.151V368.261C1344.72 367.94 1337.04 367.619 1326.79 367.298C1316.87 366.656 1306.62 366.335 1296.06 366.335C1285.49 366.335 1274.61 366.656 1263.4 367.298C1252.2 367.619 1243.87 367.94 1238.43 368.261V358.151C1251.56 358.151 1260.84 355.745 1266.28 350.931C1272.05 346.117 1274.93 336.97 1274.93 323.492V172.818C1274.93 158.376 1272.37 147.786 1267.24 141.046C1262.12 133.986 1252.52 130.456 1238.43 130.456V120.347C1248.67 121.309 1258.6 121.791 1268.2 121.791C1277.49 121.791 1286.29 121.309 1294.62 120.347C1303.26 119.063 1311.11 117.298 1318.15 115.051V171.855C1326.47 150.032 1338 134.949 1352.73 126.605C1367.77 117.94 1383.46 113.607 1399.79 113.607Z" fill="#D3DDE8"/>
</g>
</svg>
