<svg width="400" height="400" viewBox="0 0 400 400" fill="none" xmlns="http://www.w3.org/2000/svg">
<g clip-path="url(#clip0_381_269)">
<path d="M394.016 248.381C367.301 355.525 258.77 420.731 151.601 394.012C44.4772 367.301 -20.7358 258.775 5.99038 151.639C32.6931 44.4838 141.225 -20.7268 248.36 5.98468C355.521 32.6961 420.73 141.234 394.013 248.383L394.015 248.381H394.016Z" fill="white"/>
<path d="M288.201 171.505C292.182 144.889 271.917 130.582 244.205 121.038L253.195 84.9847L231.246 79.5161L222.494 114.62C216.724 113.181 210.798 111.825 204.909 110.481L213.724 75.1453L191.788 69.6768L182.793 105.718C178.018 104.631 173.328 103.557 168.778 102.425L168.803 102.311L138.535 94.7537L132.696 118.194C132.696 118.194 148.981 121.927 148.638 122.156C157.526 124.374 159.133 130.257 158.866 134.921L148.626 175.994C149.238 176.149 150.032 176.374 150.908 176.726C150.176 176.544 149.396 176.346 148.588 176.152L134.234 233.69C133.148 236.39 130.391 240.442 124.177 238.903C124.397 239.222 108.224 234.922 108.224 234.922L97.3264 260.044L125.89 267.164C131.203 268.496 136.411 269.89 141.539 271.201L132.456 307.668L154.38 313.137L163.374 277.057C169.364 278.683 175.176 280.182 180.866 281.596L171.902 317.505L193.852 322.974L202.934 286.576C240.362 293.658 268.505 290.803 280.35 256.953C289.895 229.7 279.875 213.981 260.184 203.73C274.526 200.422 285.329 190.991 288.209 171.508L288.202 171.503L288.201 171.505ZM238.052 241.818C231.269 269.071 185.378 254.339 170.5 250.645L182.553 202.333C197.43 206.046 245.142 213.396 238.053 241.818H238.052ZM244.841 171.11C238.653 195.899 200.457 183.305 188.067 180.217L198.995 136.401C211.385 139.489 251.286 145.253 244.842 171.11H244.841Z" fill="#F7931A"/>
<circle cx="200" cy="200" r="199" stroke="black" stroke-width="2"/>
</g>
<defs>
<clipPath id="clip0_381_269">
<rect width="400" height="400" fill="white"/>
</clipPath>
</defs>
</svg>
