<svg width="3582" height="1194" viewBox="0 0 3582 1194" fill="none" xmlns="http://www.w3.org/2000/svg">
<path fill-rule="evenodd" clip-rule="evenodd" d="M1034 47V1079H0.796875L0.796883 938.684L0.796898 592.614V533.387L0.796913 187.317L0.796921 47H1034ZM176.393 961.801H291.774C316.408 960.209 335.608 957.024 349.374 952.248C363.14 947.472 374.008 937.919 381.978 923.591C389.948 909.263 397.193 887.771 403.714 859.115L547.172 266.884C554.417 237.431 557.315 215.939 555.866 202.407C554.417 188.079 547.896 178.527 536.304 173.751C525.442 168.182 507.705 164.998 483.094 164.2H176.392C274.13 186.847 346.293 266.083 346.293 360.352C346.293 472.12 244.854 562.755 119.619 563C244.854 563.246 346.293 653.881 346.293 765.649C346.293 859.918 274.131 939.153 176.393 961.801ZM878.603 164.2H916.797L916.797 800.829C916.797 800.829 888.384 847.969 872.125 866.279C843.868 898.915 814.887 922.397 785.181 936.725C756.2 951.054 729.392 958.218 704.758 958.218H685.196C661.286 958.218 643.535 956.228 631.942 952.248C621.074 947.472 615.278 937.919 614.553 923.591C613.829 909.263 616.727 887.771 623.248 859.115L766.705 266.884C773.951 237.431 781.196 215.939 788.442 202.407C796.411 188.079 807.279 178.527 821.046 173.751C834.804 168.182 853.989 164.998 878.603 164.2Z" fill="#FE4F18"/>
<path d="M1243.47 46.208C1255.54 46.624 1271.34 47.04 1290.9 47.456C1310.86 47.872 1330.83 48.08 1350.8 48.08C1371.6 48.08 1391.57 47.872 1410.7 47.456C1429.84 47.04 1443.36 46.832 1451.26 46.832C1508.26 46.832 1550.69 55.984 1578.56 74.288C1606.43 92.592 1620.37 116.096 1620.37 144.8C1620.37 159.36 1615.17 174.544 1604.77 190.352C1594.37 205.744 1578.56 219.472 1557.34 231.536C1536.13 243.184 1509.09 251.088 1476.22 255.248V256.496C1519.07 258.576 1553.39 265.232 1579.18 276.464C1604.98 287.696 1623.7 301.424 1635.34 317.648C1646.99 333.456 1652.82 349.888 1652.82 366.944C1652.82 394.816 1645.33 417.696 1630.35 435.584C1615.38 453.472 1593.74 466.784 1565.46 475.52C1537.58 483.84 1504.3 488 1465.62 488C1455.63 488 1440.86 487.792 1421.31 487.376C1402.18 486.544 1379.09 486.128 1352.05 486.128C1331.25 486.128 1310.86 486.336 1290.9 486.752C1271.34 486.752 1255.54 487.168 1243.47 488V475.52C1256.37 474.688 1265.94 473.024 1272.18 470.528C1278.42 468.032 1282.58 463.04 1284.66 455.552C1286.74 448.064 1287.78 436.832 1287.78 421.856V112.352C1287.78 96.96 1286.74 85.728 1284.66 78.656C1282.58 71.168 1278.21 66.176 1271.55 63.68C1265.31 60.768 1255.95 59.104 1243.47 58.688V46.208ZM1448.14 58.688C1434 58.688 1424.85 62.224 1420.69 69.296C1416.53 76.368 1414.45 90.72 1414.45 112.352V421.856C1414.45 436.416 1415.49 447.44 1417.57 454.928C1419.65 462.416 1423.6 467.408 1429.42 469.904C1435.25 472.4 1443.78 473.648 1455.01 473.648C1478.3 473.648 1495.15 464.288 1505.55 445.568C1516.37 426.432 1521.78 399.392 1521.78 364.448C1521.78 332.416 1514.08 307.664 1498.69 290.192C1483.71 272.72 1458.54 263.984 1423.18 263.984H1377.63C1377.63 263.984 1377.63 262.32 1377.63 258.992C1377.63 255.248 1377.63 253.376 1377.63 253.376H1431.3C1447.52 253.376 1460 248.8 1468.74 239.648C1477.47 230.08 1483.5 217.6 1486.83 202.208C1490.16 186.4 1491.82 169.552 1491.82 151.664C1491.82 120.88 1488.5 97.792 1481.84 82.4C1475.18 66.592 1463.95 58.688 1448.14 58.688ZM1803.26 0.0319595C1824.9 0.0319595 1841.54 4.60796 1853.18 13.76C1865.25 22.496 1871.28 35.808 1871.28 53.696C1871.28 71.584 1865.25 85.104 1853.18 94.256C1841.54 102.992 1824.9 107.36 1803.26 107.36C1781.63 107.36 1764.78 102.992 1752.72 94.256C1741.07 85.104 1735.25 71.584 1735.25 53.696C1735.25 35.808 1741.07 22.496 1752.72 13.76C1764.78 4.60796 1781.63 0.0319595 1803.26 0.0319595ZM1863.17 157.28V429.968C1863.17 447.44 1865.66 459.296 1870.66 465.536C1876.06 471.776 1885.22 474.896 1898.11 474.896V488C1889.79 487.584 1877.31 487.168 1860.67 486.752C1844.03 485.92 1826.98 485.504 1809.5 485.504C1792.03 485.504 1774.35 485.92 1756.46 486.752C1738.58 487.168 1725.06 487.584 1715.9 488V474.896C1728.8 474.896 1737.74 471.776 1742.74 465.536C1748.14 459.296 1750.85 447.44 1750.85 429.968V232.16C1750.85 213.44 1748.35 199.712 1743.36 190.976C1738.37 181.824 1729.22 177.248 1715.9 177.248V164.144C1729.22 165.392 1742.11 166.016 1754.59 166.016C1775.39 166.016 1794.74 165.392 1812.62 164.144C1830.93 162.48 1847.78 160.192 1863.17 157.28ZM2103.46 63.056V164.144H2164.61V176.624H2103.46V435.584C2103.46 443.488 2104.91 449.312 2107.82 453.056C2110.74 456.384 2115.52 458.048 2122.18 458.048C2126.75 458.048 2132.16 456.8 2138.4 454.304C2144.64 451.392 2150.46 446.608 2155.87 439.952L2165.23 447.44C2156.5 462.416 2144.85 474.48 2130.29 483.632C2116.14 492.368 2098.26 496.736 2076.62 496.736C2062.9 496.736 2050.42 494.864 2039.18 491.12C2028.37 487.792 2019.42 482.592 2012.35 475.52C2003.2 466.368 1997.38 455.136 1994.88 441.824C1992.38 428.096 1991.14 410.416 1991.14 388.784V176.624H1943.71V164.144H1991.14V90.512C2013.18 90.512 2033.15 88.432 2051.04 84.272C2069.34 79.696 2086.82 72.624 2103.46 63.056ZM2377.24 155.408C2395.54 155.408 2411.76 157.28 2425.91 161.024C2440.05 164.768 2451.28 169.136 2459.6 174.128C2470.84 180.784 2479.78 189.728 2486.44 200.96C2493.51 211.776 2497.04 224.464 2497.04 239.024C2497.04 256.08 2491.43 270.432 2480.2 282.08C2468.96 293.728 2454.61 299.552 2437.14 299.552C2418.84 299.552 2404.69 294.352 2394.71 283.952C2384.72 273.552 2379.73 260.032 2379.73 243.392C2379.73 227.584 2384.72 214.272 2394.71 203.456C2405.11 192.224 2417.17 184.736 2430.9 180.992C2427.99 178.912 2424.45 177.248 2420.29 176C2416.55 174.336 2411.76 173.504 2405.94 173.504C2390.96 173.504 2378.69 178.08 2369.12 187.232C2359.97 195.968 2352.69 207.616 2347.28 222.176C2342.29 236.736 2338.76 252.336 2336.68 268.976C2334.6 285.616 2333.56 301.84 2333.56 317.648C2333.56 346.768 2337.51 369.44 2345.41 385.664C2353.32 401.888 2363.3 413.12 2375.36 419.36C2387.43 425.6 2399.49 428.72 2411.56 428.72C2417.38 428.72 2424.24 427.888 2432.15 426.224C2440.47 424.56 2449.41 420.816 2458.98 414.992C2468.55 408.752 2477.91 399.392 2487.06 386.912L2497.67 390.656C2492.68 407.296 2484.56 423.936 2473.33 440.576C2462.52 456.8 2448.37 470.32 2430.9 481.136C2413.43 491.536 2392.21 496.736 2367.25 496.736C2339.38 496.736 2314 491.328 2291.12 480.512C2268.66 469.696 2250.56 451.808 2236.84 426.848C2223.52 401.888 2216.87 368.4 2216.87 326.384C2216.87 286.448 2223.94 254 2238.08 229.04C2252.23 203.664 2271.36 185.152 2295.49 173.504C2320.04 161.44 2347.28 155.408 2377.24 155.408ZM2729.13 155.408C2761.58 155.408 2789.66 161.024 2813.37 172.256C2837.5 183.072 2856.22 200.96 2869.53 225.92C2882.84 250.88 2889.5 284.368 2889.5 326.384C2889.5 368.4 2882.84 401.888 2869.53 426.848C2856.22 451.808 2837.5 469.696 2813.37 480.512C2789.66 491.328 2761.58 496.736 2729.13 496.736C2697.1 496.736 2669.02 491.328 2644.89 480.512C2620.76 469.696 2602.04 451.808 2588.73 426.848C2575.42 401.888 2568.76 368.4 2568.76 326.384C2568.76 284.368 2575.42 250.88 2588.73 225.92C2602.04 200.96 2620.76 183.072 2644.89 172.256C2669.02 161.024 2697.1 155.408 2729.13 155.408ZM2729.13 167.888C2716.65 167.888 2706.25 180.368 2697.93 205.328C2689.61 230.288 2685.45 270.64 2685.45 326.384C2685.45 382.128 2689.61 422.48 2697.93 447.44C2706.25 471.984 2716.65 484.256 2729.13 484.256C2741.61 484.256 2752.01 471.984 2760.33 447.44C2768.65 422.48 2772.81 382.128 2772.81 326.384C2772.81 270.64 2768.65 230.288 2760.33 205.328C2752.01 180.368 2741.61 167.888 2729.13 167.888ZM3046.85 0.0319595C3068.48 0.0319595 3085.12 4.60796 3096.77 13.76C3108.84 22.496 3114.87 35.808 3114.87 53.696C3114.87 71.584 3108.84 85.104 3096.77 94.256C3085.12 102.992 3068.48 107.36 3046.85 107.36C3025.22 107.36 3008.37 102.992 2996.31 94.256C2984.66 85.104 2978.84 71.584 2978.84 53.696C2978.84 35.808 2984.66 22.496 2996.31 13.76C3008.37 4.60796 3025.22 0.0319595 3046.85 0.0319595ZM3106.76 157.28V429.968C3106.76 447.44 3109.25 459.296 3114.24 465.536C3119.65 471.776 3128.8 474.896 3141.7 474.896V488C3133.38 487.584 3120.9 487.168 3104.26 486.752C3087.62 485.92 3070.56 485.504 3053.09 485.504C3035.62 485.504 3017.94 485.92 3000.05 486.752C2982.16 487.168 2968.64 487.584 2959.49 488V474.896C2972.39 474.896 2981.33 471.776 2986.32 465.536C2991.73 459.296 2994.44 447.44 2994.44 429.968V232.16C2994.44 213.44 2991.94 199.712 2986.95 190.976C2981.96 181.824 2972.8 177.248 2959.49 177.248V164.144C2972.8 165.392 2985.7 166.016 2998.18 166.016C3018.98 166.016 3038.32 165.392 3056.21 164.144C3074.52 162.48 3091.36 160.192 3106.76 157.28ZM3449.38 155.408C3468.52 155.408 3483.49 157.904 3494.31 162.896C3505.54 167.472 3514.07 173.296 3519.89 180.368C3526.13 187.856 3530.71 197.84 3533.62 210.32C3536.53 222.8 3537.99 239.648 3537.99 260.864V429.968C3537.99 447.44 3540.48 459.296 3545.48 465.536C3550.88 471.776 3560.04 474.896 3572.93 474.896V488C3564.61 487.584 3551.92 487.168 3534.87 486.752C3518.23 485.92 3501.8 485.504 3485.57 485.504C3468.1 485.504 3451.04 485.92 3434.4 486.752C3417.76 487.168 3405.28 487.584 3396.96 488V474.896C3407.78 474.896 3415.27 471.776 3419.43 465.536C3423.59 459.296 3425.67 447.44 3425.67 429.968V227.168C3425.67 218.432 3424.63 211.152 3422.55 205.328C3420.47 199.504 3417.14 195.136 3412.56 192.224C3408.4 189.312 3402.58 187.856 3395.09 187.856C3387.6 187.856 3380.32 189.728 3373.25 193.472C3366.6 197.216 3360.98 202.624 3356.4 209.696C3352.24 216.352 3350.16 224.048 3350.16 232.784V429.968C3350.16 447.44 3352.24 459.296 3356.4 465.536C3360.98 471.776 3368.47 474.896 3378.87 474.896V488C3370.96 487.584 3359.32 487.168 3343.92 486.752C3328.53 485.92 3312.72 485.504 3296.5 485.504C3279.03 485.504 3261.35 485.92 3243.46 486.752C3225.57 487.168 3212.05 487.584 3202.9 488V474.896C3215.8 474.896 3224.74 471.776 3229.73 465.536C3235.14 459.296 3237.84 447.44 3237.84 429.968V232.16C3237.84 213.44 3235.35 199.712 3230.36 190.976C3225.36 181.824 3216.21 177.248 3202.9 177.248V164.144C3216.21 165.392 3229.11 166.016 3241.59 166.016C3262.39 166.016 3281.73 165.392 3299.62 164.144C3317.92 162.48 3334.77 160.192 3350.16 157.28V202.208C3360.15 185.568 3373.46 173.712 3390.1 166.64C3407.16 159.152 3426.92 155.408 3449.38 155.408Z" fill="url(#paint0_linear_1318_36324)"/>
<path d="M1464.99 634.208V646.688C1450.85 647.104 1440.03 648.768 1432.54 651.68C1425.47 654.176 1420.69 659.168 1418.19 666.656C1415.7 673.728 1414.45 684.96 1414.45 700.352V1022.34C1414.45 1033.57 1415.28 1042.1 1416.94 1047.92C1418.61 1053.33 1421.73 1057.07 1426.3 1059.15C1430.88 1060.82 1437.54 1061.65 1446.27 1061.65H1466.86C1477.68 1061.65 1489.33 1057.49 1501.81 1049.17C1514.29 1040.85 1526.35 1029.41 1538 1014.85C1550.06 1000.29 1560.46 983.856 1569.2 965.552C1577.94 946.832 1584.18 927.488 1587.92 907.52H1602.27C1601.02 922.496 1600.4 941.632 1600.4 964.928C1600.4 975.744 1600.61 991.552 1601.02 1012.35C1601.44 1032.74 1602.69 1053.95 1604.77 1076C1583.55 1075.17 1559.63 1074.75 1533.01 1074.75C1506.38 1074.34 1482.67 1074.13 1461.87 1074.13C1450.64 1074.13 1436.29 1074.13 1418.82 1074.13C1401.76 1074.13 1383.04 1074.34 1362.66 1074.75C1342.69 1074.75 1322.3 1074.96 1301.5 1075.38C1281.12 1075.38 1261.78 1075.58 1243.47 1076V1063.52C1256.37 1062.69 1265.94 1061.02 1272.18 1058.53C1278.42 1056.03 1282.58 1051.04 1284.66 1043.55C1286.74 1036.06 1287.78 1024.83 1287.78 1009.86V700.352C1287.78 684.96 1286.74 673.728 1284.66 666.656C1282.58 659.168 1278.21 654.176 1271.55 651.68C1265.31 648.768 1255.95 647.104 1243.47 646.688V634.208C1255.54 634.624 1271.34 635.04 1290.9 635.456C1310.86 635.872 1332.08 636.08 1354.54 636.08C1375.34 636.08 1395.73 635.872 1415.7 635.456C1435.66 635.04 1452.1 634.624 1464.99 634.208ZM1751.39 1080.37C1731.84 1080.37 1715.83 1076.62 1703.35 1069.14C1690.87 1061.65 1681.71 1051.87 1675.89 1039.81C1670.48 1027.74 1667.78 1015.06 1667.78 1001.74C1667.78 984.272 1671.73 970.128 1679.63 959.312C1687.54 948.08 1697.73 939.136 1710.21 932.48C1723.11 925.408 1736.63 919.584 1750.77 915.008C1764.91 910.432 1778.23 906.064 1790.71 901.904C1803.6 897.328 1814 892.128 1821.91 886.304C1829.81 880.064 1833.76 872.16 1833.76 862.592V807.056C1833.76 800.4 1832.51 793.12 1830.02 785.216C1827.94 777.312 1823.78 770.448 1817.54 764.624C1811.3 758.8 1801.94 755.888 1789.46 755.888C1782.8 755.888 1776.35 756.928 1770.11 759.008C1764.29 760.672 1759.09 763.168 1754.51 766.496C1769.07 771.904 1779.68 779.6 1786.34 789.584C1792.99 799.152 1796.32 809.76 1796.32 821.408C1796.32 838.048 1790.5 851.152 1778.85 860.72C1767.2 870.288 1753.47 875.072 1737.67 875.072C1721.03 875.072 1708.13 869.872 1698.98 859.472C1689.83 849.072 1685.25 836.176 1685.25 820.784C1685.25 807.888 1688.37 797.072 1694.61 788.336C1701.27 779.184 1711.04 770.864 1723.94 763.376C1736.42 756.304 1751.39 751.312 1768.87 748.4C1786.34 745.072 1804.64 743.408 1823.78 743.408C1844.16 743.408 1863.09 745.488 1880.56 749.648C1898.03 753.392 1913.01 761.712 1925.49 774.608C1934.23 783.76 1939.84 795.2 1942.34 808.928C1944.83 822.656 1946.08 840.336 1946.08 861.968V1029.2C1946.08 1039.6 1946.71 1046.67 1947.95 1050.42C1949.62 1054.16 1952.32 1056.03 1956.07 1056.03C1959.39 1056.03 1962.51 1054.99 1965.43 1052.91C1968.75 1050.83 1971.87 1048.75 1974.79 1046.67L1981.03 1057.28C1971.87 1065.18 1960.43 1071.01 1946.71 1074.75C1933.39 1078.5 1919.25 1080.37 1904.27 1080.37C1886.39 1080.37 1872.45 1078.29 1862.47 1074.13C1852.9 1069.55 1846.03 1063.73 1841.87 1056.66C1838.13 1049.17 1836.05 1041.26 1835.63 1032.94C1826.9 1046.67 1815.87 1058.11 1802.56 1067.26C1789.67 1076 1772.61 1080.37 1751.39 1080.37ZM1810.67 1030.45C1815.25 1030.45 1819.2 1029.82 1822.53 1028.58C1826.27 1026.91 1830.02 1024 1833.76 1019.84V888.176C1830.85 893.584 1826.9 898.992 1821.91 904.4C1817.33 909.392 1812.55 914.592 1807.55 920C1802.56 925.408 1797.78 931.232 1793.2 937.472C1789.04 943.712 1785.51 950.992 1782.59 959.312C1780.1 967.216 1778.85 976.576 1778.85 987.392C1778.85 1003.2 1781.76 1014.43 1787.59 1021.09C1793.83 1027.33 1801.52 1030.45 1810.67 1030.45ZM2343.89 752.144V765.248C2335.98 768.16 2328.29 773.984 2320.8 782.72C2313.73 791.04 2306.65 805.392 2299.58 825.776L2221.58 1057.9L2189.76 1130.91L2040 800.192C2032.93 784.384 2026.27 774.608 2020.03 770.864C2013.79 767.12 2008.38 765.248 2003.81 765.248V752.144C2020.45 753.392 2037.71 754.432 2055.6 755.264C2073.49 755.68 2090.13 755.888 2105.52 755.888C2125.07 755.888 2141.92 755.472 2156.06 754.64C2170.21 753.808 2183.52 752.976 2196 752.144V765.248C2188.51 765.248 2181.44 765.664 2174.78 766.496C2168.13 767.328 2163.34 769.408 2160.43 772.736C2157.52 775.648 2157.73 781.056 2161.05 788.96L2240.93 978.656L2234.06 983.648L2264.01 891.92C2273.58 863.632 2277.53 840.336 2275.87 822.032C2274.62 803.728 2269.84 790 2261.52 780.848C2253.2 771.28 2242.8 766.08 2230.32 765.248V752.144C2236.14 752.56 2243.21 752.976 2251.53 753.392C2259.85 753.808 2267.97 754.224 2275.87 754.64C2284.19 754.64 2290.85 754.64 2295.84 754.64C2303.33 754.64 2312.06 754.432 2322.05 754.016C2332.03 753.6 2339.31 752.976 2343.89 752.144ZM2221.58 1057.9L2195.37 1133.41C2191.63 1143.81 2187.47 1152.75 2182.89 1160.24C2178.73 1167.73 2173.74 1173.76 2167.92 1178.34C2162.51 1182.5 2155.23 1186.03 2146.08 1188.94C2137.34 1191.86 2125.28 1193.31 2109.89 1193.31C2098.24 1193.31 2085.76 1191.44 2072.45 1187.7C2059.55 1183.95 2048.32 1177.71 2038.75 1168.98C2029.6 1160.66 2025.02 1149.22 2025.02 1134.66C2025.02 1120.1 2030.64 1108.45 2041.87 1099.71C2053.1 1090.98 2067.87 1086.61 2086.17 1086.61C2103.23 1086.61 2116.75 1090.35 2126.73 1097.84C2137.13 1105.74 2142.33 1117.39 2142.33 1132.78C2142.33 1141.94 2139.01 1151.09 2132.35 1160.24C2126.11 1169.39 2115.92 1176.26 2101.77 1180.83C2105.1 1181.25 2108.85 1181.46 2113.01 1181.46C2117.17 1181.87 2120.49 1182.08 2122.99 1182.08C2136.3 1182.08 2148.16 1177.92 2158.56 1169.6C2168.96 1161.7 2176.86 1149.22 2182.27 1132.16L2204.11 1064.14L2221.58 1057.9ZM2552.14 743.408C2588.75 743.408 2617.45 754.224 2638.25 775.856C2659.47 797.072 2670.08 832.848 2670.08 883.184H2474.77L2473.52 871.328H2578.97C2579.39 850.944 2578.56 832.224 2576.48 815.168C2574.4 797.696 2571.07 783.76 2566.49 773.36C2561.92 762.96 2555.68 757.76 2547.77 757.76C2536.54 757.76 2527.39 766.704 2520.32 784.592C2513.25 802.064 2508.67 832.224 2506.59 875.072L2509.09 880.064C2508.67 884.224 2508.46 888.384 2508.46 892.544C2508.46 896.704 2508.46 901.072 2508.46 905.648C2508.46 934.768 2512 957.44 2519.07 973.664C2526.56 989.888 2535.71 1001.12 2546.53 1007.36C2557.76 1013.6 2568.99 1016.72 2580.22 1016.72C2586.05 1016.72 2592.91 1015.89 2600.81 1014.22C2609.13 1012.56 2618.08 1008.82 2627.65 1002.99C2637.21 996.752 2646.57 987.392 2655.73 974.912L2666.33 978.656C2661.34 995.296 2653.23 1011.94 2642 1028.58C2631.18 1044.8 2617.04 1058.32 2599.57 1069.14C2582.09 1079.54 2560.88 1084.74 2535.92 1084.74C2509.29 1084.74 2484.96 1079.33 2462.91 1068.51C2441.28 1057.7 2424.01 1039.81 2411.12 1014.85C2398.22 989.888 2391.77 956.4 2391.77 914.384C2391.77 874.448 2398.85 842 2412.99 817.04C2427.13 791.664 2446.27 773.152 2470.4 761.504C2494.94 749.44 2522.19 743.408 2552.14 743.408ZM2958.47 743.408C2973.44 743.408 2985.09 746.736 2993.41 753.392C3001.73 759.632 3007.56 767.744 3010.88 777.728C3014.21 787.296 3015.88 796.864 3015.88 806.432C3015.88 825.152 3010.47 840.128 2999.65 851.36C2989.25 862.176 2975.52 867.584 2958.47 867.584C2940.16 867.584 2926.23 863.424 2916.66 855.104C2907.51 846.784 2902.93 835.968 2902.93 822.656C2902.93 808.512 2905.84 796.864 2911.67 787.712C2917.91 778.56 2925.6 770.864 2934.76 764.624C2927.27 764.624 2920.61 766.08 2914.79 768.992C2909.8 771.072 2905.01 773.984 2900.44 777.728C2895.86 781.472 2891.91 785.84 2888.58 790.832C2885.25 795.408 2882.55 800.608 2880.47 806.432C2878.8 812.256 2877.97 818.288 2877.97 824.528V1011.73C2877.97 1031.7 2882.13 1045.22 2890.45 1052.29C2898.77 1059.36 2912.5 1062.9 2931.64 1062.9V1076C2922.07 1075.58 2907.72 1075.17 2888.58 1074.75C2869.86 1073.92 2850.52 1073.5 2830.55 1073.5C2811.83 1073.5 2792.9 1073.92 2773.76 1074.75C2754.63 1075.17 2740.28 1075.58 2730.71 1076V1062.9C2743.6 1062.9 2752.55 1059.78 2757.54 1053.54C2762.95 1047.3 2765.65 1035.44 2765.65 1017.97V820.16C2765.65 801.44 2763.16 787.712 2758.16 778.976C2753.17 769.824 2744.02 765.248 2730.71 765.248V752.144C2744.02 753.392 2756.92 754.016 2769.4 754.016C2790.2 754.016 2809.54 753.392 2827.43 752.144C2845.73 750.48 2862.58 748.192 2877.97 745.28V790.208C2883.38 779.392 2890.04 770.656 2897.94 764C2905.84 756.928 2914.79 751.728 2924.77 748.4C2935.17 745.072 2946.4 743.408 2958.47 743.408ZM3199.61 743.408C3217.91 743.408 3233.93 745.488 3247.66 749.648C3261.8 753.392 3271.99 756.928 3278.23 760.256C3292.79 768.992 3301.74 763.584 3305.07 744.032H3317.55C3316.71 756.096 3316.09 770.864 3315.67 788.336C3315.26 805.392 3315.05 828.064 3315.05 856.352H3302.57C3300.91 840.96 3297.16 825.776 3291.34 810.8C3285.93 795.824 3277.82 783.344 3267 773.36C3256.6 763.376 3242.87 758.384 3225.82 758.384C3215.42 758.384 3206.68 761.504 3199.61 767.744C3192.54 773.984 3189 782.512 3189 793.328C3189 805.808 3192.75 817.04 3200.23 827.024C3207.72 836.592 3217.29 845.952 3228.94 855.104C3240.59 863.84 3252.23 873.2 3263.88 883.184C3276.78 893.584 3288.22 903.776 3298.2 913.76C3308.19 923.744 3316.09 934.768 3321.91 946.832C3328.15 958.48 3331.27 972.416 3331.27 988.64C3331.27 1007.36 3325.45 1024 3313.8 1038.56C3302.57 1053.12 3287.39 1064.56 3268.25 1072.88C3249.53 1080.78 3228.52 1084.74 3205.23 1084.74C3190.67 1084.74 3177.98 1083.07 3167.16 1079.74C3156.35 1076.83 3147.61 1073.3 3140.95 1069.14C3134.3 1065.81 3128.47 1063.31 3123.48 1061.65C3118.91 1059.57 3114.33 1058.53 3109.75 1058.53C3105.59 1058.53 3102.06 1060.82 3099.15 1065.39C3096.23 1069.55 3093.95 1074.54 3092.28 1080.37H3079.8C3080.63 1067.06 3081.26 1050.83 3081.67 1031.7C3082.09 1012.56 3082.3 987.184 3082.3 955.568H3094.78C3097.27 977.616 3102.06 997.168 3109.13 1014.22C3116.62 1031.28 3125.98 1044.8 3137.21 1054.78C3148.86 1064.35 3162.17 1069.14 3177.15 1069.14C3183.8 1069.14 3189.83 1067.89 3195.24 1065.39C3200.65 1062.9 3205.02 1059.15 3208.35 1054.16C3211.67 1049.17 3213.34 1042.72 3213.34 1034.82C3213.34 1016.51 3207.72 1001.12 3196.49 988.64C3185.67 976.16 3171.95 962.432 3155.31 947.456C3142.83 935.808 3130.97 924.576 3119.74 913.76C3108.92 902.528 3099.98 890.464 3092.91 877.568C3085.83 864.256 3082.3 849.488 3082.3 833.264C3082.3 814.544 3087.71 798.528 3098.52 785.216C3109.75 771.904 3124.31 761.712 3142.2 754.64C3160.09 747.152 3179.23 743.408 3199.61 743.408Z" fill="url(#paint1_linear_1318_36324)"/>
<defs>
<linearGradient id="paint0_linear_1318_36324" x1="1226" y1="267" x2="3582" y2="267" gradientUnits="userSpaceOnUse">
<stop stop-color="#FE4F18"/>
<stop offset="1" stop-color="#FF6C19"/>
</linearGradient>
<linearGradient id="paint1_linear_1318_36324" x1="1226" y1="855" x2="3582" y2="855" gradientUnits="userSpaceOnUse">
<stop stop-color="#FE4F18"/>
<stop offset="1" stop-color="#FF6C19"/>
</linearGradient>
</defs>
</svg>
